<svg width="19" height="19" viewBox="0 0 19 19" fill="none" xmlns="http://www.w3.org/2000/svg">
<g id="Frame" clip-path="url(#clip0_288_119)">
<g id="Group">
<g id="Group_2">
<g id="Group_3">
<path id="Vector" d="M16.7895 12.4919C15.6886 12.4919 14.6076 12.3197 13.5832 11.9812C13.0725 11.807 12.491 11.9422 12.1578 12.2817L10.1359 13.808C7.79097 12.5563 6.34657 11.1124 5.11196 8.78512L6.5934 6.81586C6.97829 6.43148 7.11635 5.87 6.95095 5.34317C6.61097 4.31339 6.43826 3.2329 6.43826 2.13147C6.43831 1.3358 5.79098 0.688477 4.99535 0.688477H1.6929C0.897322 0.688477 0.25 1.3358 0.25 2.13138C0.25 11.2514 7.66954 18.6709 16.7895 18.6709C17.5852 18.6709 18.2325 18.0236 18.2325 17.228V13.9348C18.2325 13.1392 17.5851 12.4919 16.7895 12.4919ZM17.2334 17.228C17.2334 17.4729 17.0344 17.6719 16.7895 17.6719C8.22025 17.6719 1.24906 10.7007 1.24906 2.13143C1.24906 1.88656 1.44808 1.68753 1.69295 1.68753H4.9954C5.24027 1.68753 5.4393 1.88656 5.4393 2.13143C5.4393 3.33972 5.62905 4.52558 6.00026 5.64901C6.05196 5.81488 6.01 5.98656 5.84222 6.16123L4.12513 8.43531C4.01002 8.58797 3.99194 8.79238 4.0783 8.96261C5.47976 11.7172 7.1827 13.4202 9.95683 14.8417C10.1256 14.9299 10.3324 14.9114 10.4856 14.7958L12.812 13.0334C12.9295 12.9158 13.1056 12.8739 13.2647 12.928C14.3959 13.3017 15.5817 13.491 16.7895 13.491C17.0344 13.491 17.2334 13.69 17.2334 13.9348V17.228Z" fill="white"/>
</g>
</g>
</g>
</g>
<defs>
<clipPath id="clip0_288_119">
<rect width="17.9825" height="17.9825" fill="white" transform="translate(0.25 0.688477)"/>
</clipPath>
</defs>
</svg>
